<svg width="24" height="24" viewBox="0 0 24 24" fill="currentcolor" xmlns="http://www.w3.org/2000/svg">
<path d="M12.003 23.274C11.92 23.274 11.836 23.26 11.755 23.232C11.455 23.127 11.253 22.842 11.253 22.524V18.384C9.17299 18.212 7.23998 17.318 5.74698 15.824C2.29698 12.374 2.29698 6.76204 5.74698 3.31404C9.19699 -0.133955 14.809 -0.135955 18.259 3.31404C21.355 6.41105 21.709 11.384 19.079 14.879L12.589 22.991C12.443 23.173 12.226 23.273 12.002 23.273L12.003 23.274ZM12.003 2.22405C10.121 2.22405 8.23998 2.94105 6.80798 4.37405C3.94398 7.23705 3.94398 11.898 6.80798 14.764C8.19598 16.151 10.041 16.914 12.003 16.914C12.417 16.914 12.753 17.251 12.753 17.664V20.384L17.895 13.959C20.065 11.074 19.771 6.94505 17.199 4.37205C15.765 2.94205 13.883 2.22405 12.002 2.22405H12.003Z" fill="currentcolor"/>
<path d="M15.55 8.70007H8.44998C8.03698 8.70007 7.69998 8.36307 7.69998 7.95007C7.69998 7.53707 8.03698 7.20007 8.44998 7.20007H15.55C15.963 7.20007 16.3 7.53507 16.3 7.95007C16.3 8.36507 15.963 8.70007 15.55 8.70007ZM12.5 11.9381H8.44998C8.03698 11.9381 7.69998 11.6021 7.69998 11.1881C7.69998 10.7741 8.03698 10.4381 8.44998 10.4381H12.5C12.914 10.4381 13.25 10.7741 13.25 11.1881C13.25 11.6021 12.914 11.9381 12.5 11.9381Z" fill="currentcolor"/>
</svg>
