<svg width="24" height="24" viewBox="0 0 24 24" fill="currentcolor" xmlns="http://www.w3.org/2000/svg">
<g clip-path="url(#clip0_1929_671)">
<path d="M23.61 0.15C23.235 -0.034 22.788 0.12 22.604 0.49L19.74 6.266L18.037 4.456C17.754 4.153 17.279 4.14 16.977 4.424C16.675 4.708 16.661 5.184 16.945 5.484L19.388 8.08C19.531 8.23 19.728 8.315 19.934 8.315C19.97 8.315 20.007 8.312 20.044 8.307C20.287 8.271 20.496 8.117 20.606 7.897L23.948 1.157C24.132 0.785 23.98 0.335 23.608 0.151L23.61 0.15ZM19.018 16.625C18.935 16.561 16.974 15 17.008 10.865C17.03 8.432 16.228 6.269 14.752 4.775C13.428 3.435 11.636 2.692 9.70598 2.683H9.69298C7.76298 2.693 5.97097 3.433 4.64697 4.775C3.17197 6.27 2.36998 8.433 2.38998 10.867C2.42598 15 0.466975 16.56 0.389975 16.62C0.129975 16.813 0.0229749 17.15 0.123975 17.458C0.225975 17.766 0.513975 17.973 0.835975 17.973H4.91597C5.00397 20.543 7.10898 22.613 9.70098 22.613C12.293 22.613 14.399 20.543 14.486 17.973H18.568C18.888 17.973 19.172 17.767 19.275 17.463C19.378 17.159 19.273 16.82 19.019 16.625H19.018ZM9.69998 20.513C8.26597 20.513 7.09997 19.386 7.01597 17.973H12.384C12.299 19.386 11.134 20.513 9.69998 20.513Z" fill="currentcolor"/>
</g>
<defs>
<clipPath id="clip0_1929_671">
<rect width="24" height="24" fill="white"/>
</clipPath>
</defs>
</svg>
